<?xml version="1.0" encoding="UTF-8" standalone="no"?>
<!DOCTYPE svg PUBLIC "-//W3C//DTD SVG 1.1//EN" "http://www.w3.org/Graphics/SVG/1.1/DTD/svg11.dtd">
<svg width="100%" height="100%" viewBox="0 0 43 43" version="1.1" xmlns="http://www.w3.org/2000/svg" xmlns:xlink="http://www.w3.org/1999/xlink" xml:space="preserve" xmlns:serif="http://www.serif.com/" style="fill-rule:evenodd;clip-rule:evenodd;stroke-linecap:round;stroke-linejoin:round;">
    <g id="search" transform="matrix(0.328313,0,0,0.328313,0,0)">
        <rect x="0" y="0" width="128" height="128" style="fill:none;"/>
        <clipPath id="_clip1">
            <rect x="0" y="0" width="128" height="128"/>
        </clipPath>
        <g clip-path="url(#_clip1)">
            <g transform="matrix(3.04587,0,0,3.04587,0.318043,0.318043)">
                <rect x="0" y="0" width="44" height="44" style="fill:none;fill-rule:nonzero;"/>
            </g>
            <g transform="matrix(3.04587,0,0,3.04587,0.318043,0.318043)">
                <path d="M5.5,18.333C5.5,25.373 11.293,31.167 18.333,31.167C25.373,31.167 31.167,25.373 31.167,18.333C31.167,11.293 25.373,5.5 18.333,5.5C11.293,5.5 5.5,11.293 5.5,18.333" style="fill:none;fill-rule:nonzero;stroke:black;stroke-width:2.75px;"/>
            </g>
            <g transform="matrix(3.04587,0,0,3.04587,0.318043,0.318043)">
                <path d="M38.5,38.5L27.5,27.5" style="fill:none;fill-rule:nonzero;stroke:black;stroke-width:2.75px;"/>
            </g>
        </g>
    </g>
</svg>
